# xmcd
#
# Track frame offsets: 
#        150
#        28689
#        45633
#        70861
#        106686
#        141576
#        178467
#        203667
#        231360
#        257220
#
# Disc length: 3781 seconds
#
# Revision: 0
# Processed by: cddbd v1.5.2PL0 Copyright (c) Steve Scherf et al.
# Submitted via: ExactAudioCopy v0.90b4
#
DISCID=940ec30a
DTITLE=Josh Miller - Live at the Cottage Pub
DYEAR=2008
DGENRE=Blues
TTITLE0=Back to the chicken shack
TTITLE1=Chicago breakdown
TTITLE2=That's alright
TTITLE3=Can't lose what you ain't never had
TTITLE4=That ain't right
TTITLE5=Come on work
TTITLE6=Done got tired
TTITLE7=Truly
TTITLE8=Goin' away
TTITLE9=Guv'ners boohie
EXTD=
EXTT0=
EXTT1=
EXTT2=
EXTT3=
EXTT4=
EXTT5=
EXTT6=
EXTT7=
EXTT8=
EXTT9=
PLAYORDER=
